<svg width="81" height="81" viewBox="0 0 81 81" fill="none" xmlns="http://www.w3.org/2000/svg">
<path d="M37.125 50.625H43.875V57.375H37.125V50.625ZM37.125 23.625H43.875V43.875H37.125V23.625ZM40.4662 6.75C21.8362 6.75 6.75 21.87 6.75 40.5C6.75 59.13 21.8362 74.25 40.4662 74.25C59.13 74.25 74.25 59.13 74.25 40.5C74.25 21.87 59.13 6.75 40.4662 6.75ZM40.5 67.5C25.5825 67.5 13.5 55.4175 13.5 40.5C13.5 25.5825 25.5825 13.5 40.5 13.5C55.4175 13.5 67.5 25.5825 67.5 40.5C67.5 55.4175 55.4175 67.5 40.5 67.5Z" fill="#2AC2E5"/>
</svg>
