<svg width="226" height="84" viewBox="0 0 226 84" fill="none" xmlns="http://www.w3.org/2000/svg">
<g clip-path="url(#clip0)">
<path d="M114 31.9903C112.458 33.6347 111.144 35.0275 109.814 36.455C108.137 38.2339 106.474 40.0302 104.746 41.7614C104.232 42.2777 104.236 42.5988 104.629 43.1759C107.144 46.8856 109.624 50.6213 112.229 54.5219C110.203 54.5219 108.289 54.5219 106.375 54.5219C105.977 54.5219 105.757 54.088 105.545 53.78C103.03 50.0573 100.538 46.3172 98.0101 42.5988C97.7552 42.2213 97.82 42.0434 98.0965 41.731C100.994 38.6851 103.885 35.6335 106.768 32.5761C106.929 32.3893 107.128 32.2393 107.351 32.1361C107.575 32.0328 107.818 31.9787 108.064 31.9773C109.935 31.999 111.797 31.9903 114 31.9903Z" fill="white"/>
<path d="M97.4657 42.8331C97.4657 46.1277 97.4657 49.4224 97.4657 52.717C97.4657 54.1401 97.0337 54.548 95.6252 54.5436C94.45 54.5436 92.8601 54.9775 92.2034 54.3701C91.4516 53.6889 91.983 52.0705 91.9787 50.86C91.9528 45.2672 91.9787 39.6744 91.9787 34.0773C91.9787 32.4372 92.4108 31.9947 94.0785 31.986C94.8389 31.986 95.6079 32.0381 96.364 31.986C97.2281 31.9122 97.5262 32.1335 97.5046 33.0794C97.4268 36.3162 97.4657 39.5746 97.4657 42.8331Z" fill="white"/>
<path d="M154.548 42.9546C154.548 40.7851 154.548 38.6591 154.548 36.5114C154.548 34.7411 155.04 34.2422 156.764 34.2509C158.972 34.2509 159.011 33.856 158.994 36.481C158.994 38.4509 158.994 38.4509 160.96 38.4509H161.072C163.586 38.4509 164.001 38.9845 163.543 41.5228C163.539 41.6373 163.512 41.7497 163.462 41.8528C163.412 41.9559 163.341 42.0474 163.254 42.1214C163.167 42.1954 163.066 42.2503 162.956 42.2824C162.847 42.3146 162.732 42.3233 162.619 42.3081C161.664 42.3081 160.709 42.3081 159.758 42.3081C159.275 42.3081 158.968 42.3602 158.981 42.9763C159.024 45.1457 159.028 47.3455 159.024 49.5279C159.024 50.3957 159.421 50.7949 160.281 50.7515C161.046 50.7168 161.806 50.6777 162.571 50.6907C163.21 50.6907 163.919 50.6907 164.122 51.5281C164.45 52.9035 164.122 54.2616 163.258 54.4612C160.839 55.0122 158.406 55.138 156.259 53.5934C154.963 52.6475 154.582 51.181 154.565 49.6407C154.535 47.4149 154.565 45.1934 154.565 42.9676L154.548 42.9546Z" fill="white"/>
<path d="M120.36 43.4405C120.36 46.6989 120.334 49.9487 120.36 53.2159C120.36 54.1791 120.127 54.5826 119.064 54.5739C115.936 54.5436 115.936 54.5739 115.936 51.4239V34.2768C115.936 32.5413 116.459 32.0336 118.165 32.0293C120.325 32.0293 120.325 32.0293 120.325 34.2291L120.36 43.4405Z" fill="white"/>
<path d="M141.712 48.1872C141.824 46.6339 141.595 44.7161 141.841 42.8113C142.247 39.6917 144.434 38.5202 146.628 38.2903C147.923 38.2076 149.222 38.2076 150.517 38.2903C151.191 38.2903 151.813 38.5289 152.068 39.2405C152.383 40.0727 152.371 40.9943 152.033 41.8177C151.878 42.1822 151.472 42.1345 151.126 42.1388C150.02 42.1388 148.91 42.1388 147.808 42.1822C146.706 42.2256 146.188 42.7723 146.205 43.9177C146.248 46.9549 146.205 49.9921 146.205 52.9989C146.205 54.4568 146.11 54.5566 144.65 54.5436C141.375 54.5175 141.72 55.0078 141.707 51.6409C141.712 50.6082 141.712 49.5756 141.712 48.1872Z" fill="white"/>
<path d="M200.31 46.4994C200.31 48.7556 200.289 51.0162 200.31 53.2724C200.31 54.1705 200.06 54.6521 199.07 54.574C198.426 54.5068 197.775 54.5068 197.131 54.574C196.068 54.6868 195.834 54.1662 195.834 53.2203C195.86 49.0116 195.834 44.8073 195.834 40.5986C195.834 38.6939 198.137 37.4616 199.805 38.4292C200.293 38.7155 200.284 39.1581 200.284 39.6224C200.306 41.9089 200.31 44.2042 200.31 46.4994Z" fill="white"/>
<path d="M225.585 46.5471C225.585 48.8076 225.585 51.0638 225.585 53.3243C225.585 54.1704 225.339 54.626 224.406 54.5609C223.645 54.5132 222.881 54.5132 222.12 54.5609C221.425 54.5956 221.126 54.2615 221.126 53.6194C221.126 49.1417 221.126 44.6597 221.126 40.169C221.126 39.0452 221.809 38.4334 222.889 38.2816C223.268 38.2447 223.65 38.236 224.03 38.2555C225.369 38.2555 225.564 38.4508 225.568 39.7611C225.59 42.0347 225.585 44.2909 225.585 46.5471Z" fill="white"/>
<path d="M69.5338 7.09832C70.114 7.09458 70.6891 7.20826 71.2247 7.43257C71.7602 7.65689 72.2453 7.98724 72.6509 8.40392C73.0566 8.8206 73.3745 9.31507 73.5857 9.85783C73.7969 10.4006 73.897 10.9805 73.8802 11.563C73.8677 12.7211 73.3996 13.8272 72.578 14.6401C71.7565 15.4529 70.6482 15.9065 69.4949 15.9018C68.9144 15.909 68.3383 15.7986 67.8012 15.5772C67.2641 15.3558 66.7769 15.0279 66.3688 14.6132C65.9607 14.1985 65.64 13.7054 65.4259 13.1635C65.2118 12.6215 65.1086 12.0418 65.1226 11.4589C65.1079 10.8763 65.2125 10.2969 65.4299 9.75658C65.6473 9.21626 65.9728 8.72653 66.3864 8.31772C66.7999 7.90892 67.2927 7.58975 67.8341 7.38C68.3755 7.17025 68.954 7.07437 69.5338 7.09832Z" fill="#2AC2E5"/>
<path d="M223.369 36.8281C221.723 36.8281 220.777 35.8866 220.777 34.1814C220.777 32.4762 221.826 31.4045 223.429 31.3785C224.907 31.3481 225.983 32.5109 225.996 34.1467C226.009 35.7824 225.062 37.0624 223.369 36.8281Z" fill="#2BC2E4"/>
<path d="M200.626 34.1163C200.626 35.9517 199.818 36.8238 198.107 36.8281C196.396 36.8325 195.558 36.0124 195.554 34.2508C195.549 32.4893 196.547 31.3568 198.124 31.3482C199.554 31.3438 200.621 32.5413 200.626 34.1163Z" fill="#F9CD10"/>
<path d="M149.575 69.3737C149.575 69.903 149.575 70.4324 149.575 70.9617C149.575 71.4216 149.67 71.8295 148.923 71.8295C148.175 71.8295 148.115 71.5388 148.136 70.9617C148.175 69.9247 148.136 68.8877 148.162 67.8551C148.162 67.5253 147.903 66.9873 148.469 66.9049C149.035 66.8224 149.61 66.5968 150.016 67.2563C150.422 67.9158 150.927 68.6404 151.562 69.5993C151.562 68.8053 151.562 68.2977 151.562 67.7813C151.562 67.265 151.493 66.8224 152.284 66.8355C153.075 66.8485 152.945 67.2693 152.941 67.7249C152.941 68.7966 152.941 69.8726 152.941 70.9443C152.941 71.2307 153.2 71.7427 152.69 71.7904C152.18 71.8381 151.619 72.0768 151.238 71.478C150.767 70.7491 150.284 70.0288 149.804 69.3086L149.575 69.3737Z" fill="white"/>
<path d="M143.997 69.339V70.8359C143.997 71.3523 144.144 71.8469 143.25 71.8512C142.355 71.8556 142.308 71.4651 142.386 70.8273C142.489 70.068 142.265 69.7859 141.422 69.7686C140.485 69.7686 140.433 70.2025 140.511 70.8837C140.588 71.5649 140.485 71.8512 139.69 71.8426C138.895 71.8339 138.955 71.4347 138.964 70.9097C138.964 69.799 138.994 68.6839 138.964 67.5731C138.964 67.0264 139.124 66.8225 139.677 66.8442C140.23 66.8659 140.597 66.8659 140.515 67.5645C140.433 68.263 140.441 68.8097 141.47 68.7446C142.222 68.6969 142.507 68.5016 142.386 67.764C142.278 67.1002 142.476 66.8182 143.25 66.8269C144.023 66.8355 144.049 67.1566 144.01 67.7293C143.971 68.3021 143.997 68.8054 143.997 69.339Z" fill="white"/>
<path d="M75.859 2.39934C75.859 0.980543 76.7015 0.0346749 78.0192 -3.58438e-05C78.654 -0.0153084 79.2692 0.221076 79.7318 0.657952C80.1943 1.09483 80.4669 1.69705 80.4906 2.33426C80.4883 2.64058 80.4257 2.94341 80.3064 3.22532C80.187 3.50723 80.0133 3.76263 79.7952 3.9768C79.5772 4.19097 79.319 4.35967 79.0357 4.47318C78.7524 4.5867 78.4495 4.64278 78.1445 4.63819C77.8425 4.66506 77.5382 4.62606 77.2526 4.52385C76.967 4.42164 76.7067 4.25864 76.4896 4.04601C76.2726 3.83339 76.1038 3.57616 75.995 3.29194C75.8861 3.00773 75.8398 2.70324 75.859 2.39934Z" fill="#29C3E4"/>
<path d="M165.673 33.9644C166.472 31.6735 167.181 29.6256 167.898 27.5993C167.935 27.4309 168.033 27.2821 168.173 27.1813C168.312 27.0805 168.483 27.0347 168.654 27.0526C169.41 27.0787 170.171 27.0526 171.126 27.0526C170.011 29.2698 169.009 31.3915 167.898 33.4307C167.427 34.3028 166.516 33.5652 165.673 33.9644Z" fill="white"/>
<path d="M158.626 70.5193C159.002 71.86 158.013 71.7949 157.244 71.9207C155.313 72.2331 153.762 70.9272 153.939 69.1352C154.034 68.2067 154.41 67.3997 155.33 67.0656C155.811 66.879 156.326 66.7935 156.842 66.8144C157.357 66.8353 157.863 66.9621 158.328 67.1871C158.782 67.3997 158.449 67.621 158.384 67.8119C158.255 68.1937 158.108 68.4844 157.572 68.1633C157.309 67.9996 156.996 67.9358 156.69 67.9835C156.384 68.0313 156.106 68.1874 155.905 68.4236C155.71 68.6577 155.588 68.9442 155.554 69.2475C155.52 69.5507 155.576 69.8573 155.714 70.1288C155.799 70.3238 155.943 70.4871 156.125 70.5954C156.307 70.7036 156.519 70.7514 156.73 70.7319C157.313 70.7319 157.101 70.259 157.114 69.9683C157.144 69.1743 157.736 69.4476 158.125 69.4433C159.02 69.4216 158.484 70.1765 158.626 70.5193Z" fill="white"/>
<path d="M184.523 66.8443C184.839 66.8792 185.151 66.9386 185.457 67.0222C185.707 67.1003 186.157 67.1958 185.889 67.621C185.707 67.903 185.763 68.5495 185.072 68.2805C184.64 68.1156 183.996 67.7338 183.776 68.2805C183.62 68.7143 184.377 68.8272 184.761 69.0181C185.413 69.3435 185.997 69.7643 185.884 70.554C185.772 71.3437 185.223 71.6691 184.48 71.8557C183.77 71.9855 183.037 71.8978 182.376 71.604C181.944 71.4565 181.732 71.2743 182.005 70.7927C182.216 70.4239 182.311 69.9249 182.869 70.4065C183 70.4897 183.147 70.543 183.301 70.5627C183.625 70.6365 184.044 70.8143 184.191 70.3935C184.338 69.9726 183.862 69.9596 183.633 69.7991C183.598 69.7834 183.562 69.7704 183.525 69.76C182.704 69.4172 181.754 69.0745 182.065 67.942C182.363 66.9441 183.309 66.8183 184.523 66.8443Z" fill="white"/>
<path d="M109.844 69.2869C109.844 66.8485 109.844 66.8485 112.263 66.8572C112.488 66.8572 112.717 66.8572 112.946 66.8572C113.378 66.8572 113.408 67.1435 113.421 67.4733C113.434 67.803 113.266 67.9549 112.942 67.9462C112.618 67.9375 112.328 67.9462 112.026 67.9462C111.723 67.9462 111.395 67.9115 111.378 68.3801C111.36 68.8487 111.71 68.7879 112.004 68.814C112.155 68.814 112.311 68.814 112.462 68.814C112.799 68.814 113.041 68.8443 113.037 69.2956C113.032 69.7468 112.808 69.7598 112.471 69.8076C112.06 69.864 111.291 69.4691 111.408 70.3456C111.494 71.0138 112.16 70.5452 112.544 70.671C112.694 70.7014 112.848 70.7014 112.998 70.671C113.43 70.6319 113.516 70.8445 113.503 71.2177C113.49 71.5908 113.503 71.8295 113.071 71.8208C112.155 71.7991 111.244 71.7991 110.328 71.8208C109.896 71.8208 109.853 71.5778 109.861 71.2394C109.853 70.5886 109.844 69.9377 109.844 69.2869Z" fill="white"/>
<path d="M189.051 66.8181C189.397 66.8661 189.741 66.9327 190.08 67.0177C190.369 67.1045 190.68 67.2737 190.451 67.6729C190.283 67.9636 190.265 68.4929 189.686 68.2716C189.588 68.2155 189.484 68.1717 189.375 68.1415C189.017 68.1111 188.511 67.8117 188.347 68.2282C188.183 68.6448 188.779 68.7706 189.077 68.9094C189.941 69.2999 190.736 69.7251 190.373 70.8402C190.01 71.9553 189.038 71.964 188.109 71.9119C187.698 71.8546 187.296 71.7437 186.913 71.5822C186.437 71.426 186.373 71.1483 186.645 70.7144C186.843 70.402 186.917 69.9377 187.422 70.3846C187.519 70.4443 187.626 70.4854 187.738 70.5061C188.101 70.6276 188.602 70.8316 188.775 70.4541C189.012 69.9551 188.407 69.903 188.114 69.7642C187.349 69.3997 186.437 69.1047 186.671 68.0287C186.904 66.9526 187.906 66.8615 189.051 66.8181Z" fill="white"/>
<path d="M166.252 72.0247C165.906 71.9293 165.466 71.8165 165.034 71.6863C164.602 71.5562 164.256 71.3826 164.576 70.8186C164.805 70.3847 164.978 70.1113 165.483 70.4801C165.679 70.5995 165.899 70.6723 166.127 70.6927C166.343 70.7188 166.628 70.7838 166.736 70.5192C166.887 70.1634 166.563 70.0853 166.334 69.9595C166.027 69.8076 165.703 69.6905 165.405 69.5256C164.874 69.2305 164.489 68.8357 164.589 68.1545C164.633 67.8688 164.766 67.6043 164.968 67.3987C165.171 67.193 165.432 67.0567 165.716 67.009C166.42 66.7929 167.173 66.7929 167.877 67.009C168.166 67.0958 168.741 67.1045 168.417 67.7206C168.231 68.0677 168.157 68.5884 167.553 68.263C167.447 68.1906 167.328 68.1418 167.203 68.1198C166.887 68.0938 166.459 67.8161 166.313 68.263C166.187 68.6318 166.654 68.6969 166.892 68.8357C166.953 68.8807 167.02 68.9185 167.09 68.9485C167.89 69.2479 168.615 69.6905 168.412 70.6624C168.196 71.7297 167.254 71.8729 166.252 72.0247Z" fill="white"/>
<path d="M203.559 69.3695C203.559 66.8139 203.559 66.8052 206.152 66.866C206.558 66.866 207.128 66.649 207.111 67.443C207.094 68.237 206.476 67.8769 206.108 67.9463C205.882 67.971 205.654 67.9782 205.426 67.968C205.128 67.9941 205.072 68.2153 205.076 68.4626C205.08 68.71 205.231 68.7924 205.447 68.7967C205.754 68.7967 206.057 68.7967 206.363 68.7967C206.67 68.7967 206.795 68.9616 206.795 69.287C206.795 69.6124 206.713 69.7947 206.363 69.7817C206.013 69.7686 205.754 69.7817 205.447 69.7817C205.141 69.7817 205.085 69.9943 205.067 70.2459C205.05 70.4976 205.21 70.6494 205.478 70.6494C205.91 70.6494 206.316 70.6494 206.735 70.6494C207.154 70.6494 207.236 70.8534 207.236 71.2135C207.236 71.5736 207.197 71.8036 206.761 71.7992C205.845 71.7992 204.929 71.7775 204.013 71.7992C203.542 71.7992 203.581 71.5085 203.581 71.1918C203.564 70.5974 203.559 69.9812 203.559 69.3695Z" fill="white"/>
<path d="M121.509 71.8121C119.63 71.8121 119.63 71.8121 119.63 69.8987C119.63 69.7034 119.63 69.5125 119.63 69.3216C119.699 68.532 119.263 67.3995 119.816 67.0307C120.589 66.5187 121.734 66.9049 122.719 66.8658C123.177 66.8441 123.151 67.1696 123.151 67.4863C123.151 67.803 123.026 67.9679 122.684 67.9549C122.343 67.9419 121.924 67.9549 121.544 67.9549C121.285 67.9549 121.112 68.0503 121.112 68.3454C121.086 68.7142 121.28 68.814 121.596 68.8053C121.709 68.7879 121.824 68.7879 121.937 68.8053C122.27 68.9051 122.849 68.5016 122.879 69.2392C122.913 70.0722 122.274 69.6991 121.898 69.7642C121.522 69.8293 121.069 69.6557 121.116 70.2892C121.155 70.8576 121.609 70.6103 121.898 70.6493C122.201 70.6754 122.506 70.6754 122.81 70.6493C123.242 70.6493 123.276 70.9053 123.289 71.2437C123.302 71.5822 123.181 71.8121 122.771 71.7904C122.36 71.7687 121.928 71.8078 121.509 71.8121Z" fill="white"/>
<path d="M113.953 66.9832C116.238 66.2282 115.681 68.389 116.519 69.2828C116.735 68.6406 116.951 68.0549 117.137 67.4561C117.219 67.2001 117.245 66.8964 117.569 66.8834C117.893 66.8704 118.407 66.7793 118.675 66.9571C119.059 67.2045 118.614 67.5646 118.515 67.8509C118.139 68.9617 117.69 70.0507 117.288 71.1528C117.133 71.5867 116.951 71.8514 116.424 71.8297C116.222 71.8467 116.021 71.787 115.861 71.6625C115.701 71.5379 115.594 71.3576 115.56 71.1571C115.072 69.7731 114.493 68.415 113.953 66.9832Z" fill="white"/>
<path d="M133.503 67.0266C133.199 67.6022 132.855 68.156 132.475 68.684C131.835 69.4607 131.796 70.3458 131.861 71.2656C131.896 71.7472 131.662 71.8948 131.26 71.8036C130.859 71.7125 130.206 72.0987 130.297 71.4262C130.535 69.6906 129.601 68.389 128.798 67.0092C130.094 66.5406 130.729 67.0526 131.062 68.389C131.658 67.4474 132.06 66.3107 133.503 67.0266Z" fill="white"/>
<path d="M136.095 66.8486C136.592 66.8486 137.089 66.8486 137.586 66.8486C137.966 66.8486 138.238 66.9007 138.251 67.3997C138.264 67.8986 138.022 68.0158 137.62 67.9594C136.812 67.8379 136.756 68.3195 136.795 68.9269C136.825 69.6168 136.765 70.311 136.795 70.9966C136.825 71.6821 136.618 71.8296 135.97 71.8643C135.322 71.899 135.235 71.5693 135.257 71.0443C135.287 70.4325 135.257 69.8164 135.257 69.2046C135.292 68.4757 135.343 67.7771 134.25 67.9724C133.857 68.0418 133.853 67.7381 133.848 67.4517C133.848 67.0959 133.926 66.8573 134.35 66.8703C134.937 66.8616 135.512 66.853 136.095 66.8486Z" fill="white"/>
<path d="M97.8027 69.9725C96.0529 69.9725 94.3031 69.9725 92.5533 69.9725C92.2379 69.9725 91.7368 70.1981 91.7497 69.5126C91.7497 68.9312 92.1818 69.0787 92.4756 69.0787C96.0529 69.0787 99.6303 69.0787 103.208 69.0787C103.54 69.0787 103.908 68.9963 103.895 69.556C103.882 70.1157 103.463 69.9899 103.169 69.9899C101.38 69.9769 99.5914 69.9725 97.8027 69.9725Z" fill="white"/>
<path d="M219.407 69.9725C217.653 69.9725 215.899 69.9725 214.145 69.9725C213.864 69.9725 213.419 70.1851 213.393 69.5907C213.367 68.9963 213.825 69.0787 214.162 69.0787C217.67 69.0787 221.177 69.0787 224.682 69.0787C225.054 69.0787 225.486 68.9833 225.438 69.608C225.391 70.2328 224.946 69.9725 224.665 69.9725C222.911 69.9812 221.157 69.9725 219.407 69.9725Z" fill="white"/>
<path d="M199.235 69.3218C199.235 68.7882 199.265 68.2545 199.235 67.7208C199.204 67.1871 199.274 66.8053 200.004 66.8313C200.656 66.8313 200.868 67.057 200.82 67.6991C200.773 68.1937 200.82 68.6927 200.82 69.1873C200.773 70.0985 200.691 70.9966 202.09 70.6799C202.522 70.5801 202.669 70.8491 202.665 71.2786C202.661 71.7082 202.527 71.8427 202.138 71.8167C202.024 71.8101 201.91 71.8101 201.797 71.8167C199.235 71.8731 199.235 71.8731 199.235 69.3218Z" fill="white"/>
<path d="M146.754 69.4909C146.754 69.9465 146.754 70.4064 146.754 70.862C146.754 71.4087 146.836 71.8599 145.98 71.8469C145.125 71.8339 145.172 71.4434 145.185 70.862C145.207 69.7556 145.224 68.6449 145.185 67.5428C145.155 66.8356 145.561 66.8659 146.05 66.8399C146.538 66.8139 146.801 66.9874 146.767 67.5471C146.724 68.1893 146.754 68.8401 146.754 69.4909Z" fill="white"/>
<path d="M161.94 69.2957C161.94 68.762 161.975 68.224 161.94 67.6903C161.884 67.0481 162.1 66.8225 162.765 66.8225C163.431 66.8225 163.491 67.1392 163.478 67.6903C163.452 68.8357 163.444 69.9855 163.478 71.131C163.478 71.6777 163.336 71.8773 162.778 71.8469C162.286 71.8209 161.867 71.8469 161.914 71.1483C161.979 70.5235 161.936 69.9074 161.94 69.2957Z" fill="white"/>
<path d="M191.453 69.3651C191.453 68.8315 191.453 68.2934 191.453 67.7554C191.453 67.2174 191.453 66.8096 192.205 66.8226C192.888 66.8226 193.035 67.1003 193.013 67.7164C192.974 68.8662 192.97 70.0203 193.013 71.1874C193.039 71.8209 192.715 71.8556 192.24 71.8426C191.765 71.8296 191.376 71.9034 191.449 71.2265C191.492 70.5974 191.453 69.9812 191.453 69.3651Z" fill="white"/>
<path d="M73.8327 35.878C71.931 30.4903 68.7881 25.6303 64.6603 21.6943C58.387 15.6894 50.8348 12.5827 42.2586 11.767C37.0507 11.2646 31.8096 11.2109 26.5926 11.6065C22.9936 11.8799 19.3558 11.9883 15.8691 13.0513C6.91277 15.7935 0.0259251 25.1654 2.2453e-06 34.5807C2.2453e-06 44.8247 2.2453e-06 55.0687 2.2453e-06 65.3084C-0.0284183 67.9879 0.422297 70.6508 1.33071 73.1703C3.45639 78.967 9.64763 83.6964 15.7698 83.8482C20.1982 83.9567 24.6267 83.8699 29.0596 83.8699C33.8253 84.105 38.6014 84.021 43.356 83.6183C47.1964 83.3179 50.9567 82.3566 54.4726 80.7763C60.5947 78.0125 65.3732 73.6476 69.3264 68.2718C73.7398 62.3383 76.0403 55.0878 75.859 47.684C75.8405 43.663 75.1558 39.6732 73.8327 35.878ZM40.2453 67.2522C37.6227 69.8815 33.0862 69.8251 30.3471 67.1177C25.8754 62.7007 21.4339 58.2534 16.9536 53.8582C15.7611 52.691 14.6421 51.5152 14.2403 49.8404C13.6009 47.1894 14.1625 44.7943 16.0506 42.8375C20.8089 37.9201 25.6003 33.0245 30.4248 28.1505C31.0334 27.5098 31.7741 27.0104 32.595 26.6874C33.416 26.3644 34.2973 26.2255 35.1773 26.2805C38.1153 26.2805 40.6514 27.9032 41.6581 30.4805C42.7728 33.3528 42.3407 36.0125 40.2366 38.2383C38.1326 40.4642 35.9853 42.5772 33.8466 44.7466C32.732 45.8747 32.1573 47.172 32.5505 48.7861C32.8097 49.7927 33.514 50.4869 34.2225 51.1811C36.2532 53.1813 38.2967 55.1685 40.2971 57.1991C40.965 57.8547 41.4947 58.6386 41.8547 59.504C42.2148 60.3694 42.3979 61.2987 42.393 62.2367C42.3882 63.1746 42.1955 64.1019 41.8266 64.9636C41.4576 65.8252 40.9198 66.6035 40.2453 67.2522Z" fill="#2AC2E5"/>
<path d="M192.413 38.8195C191.22 34.1032 188.347 31.9858 183.491 31.9858C180.592 31.9858 177.688 32.0162 174.785 31.9858C173.921 31.9858 173.683 32.1811 173.696 33.0575C173.748 36.4332 173.718 39.8044 173.718 43.18C173.718 46.6511 173.739 50.0831 173.718 53.5325C173.718 54.3005 173.891 54.6042 174.725 54.5912C177.749 54.5435 180.773 54.6693 183.772 54.5435C187.794 54.3786 190.788 52.7732 192.089 48.8032C193.156 45.5768 193.268 42.1089 192.413 38.8195ZM187.077 46.9592C186.824 47.9066 186.26 48.7401 185.475 49.324C184.691 49.9079 183.732 50.2076 182.756 50.1743C181.801 50.1743 180.847 50.1309 179.896 50.1743C179.218 50.222 179.08 49.9617 179.093 49.3369C179.127 47.3106 179.093 45.2844 179.093 43.2625C179.093 41.2406 179.118 39.2057 179.093 37.1881C179.093 36.5546 179.239 36.3203 179.905 36.3507C180.968 36.4071 182.039 36.3507 183.102 36.3767C185.171 36.4418 186.558 37.4788 187.098 39.4834C187.774 41.9301 187.766 44.5164 187.077 46.9592Z" fill="white"/>
<path d="M217.804 47.9138C217.804 45.2498 217.804 43.063 217.804 40.8806C217.804 39.5051 217.428 38.9194 216.119 38.7111C213.185 38.2773 210.23 37.8781 207.288 38.6374C205.244 39.1667 203.775 40.3122 203.097 42.4252C202.523 44.1743 202.331 46.0272 202.535 47.8574C202.967 51.6713 204.38 53.1812 208.066 54.1271C209.569 54.5132 211.09 54.3483 212.606 54.3613C213.376 54.3613 213.522 54.587 213.293 55.3116C212.961 56.3833 212.097 56.5134 211.224 56.5655C209.131 56.6668 207.033 56.5986 204.951 56.3616C204.583 56.3225 204.143 56.214 203.901 56.6045C203.421 57.3768 203.529 58.2316 203.732 59.0473C203.812 59.3911 204 59.6998 204.269 59.9274C204.537 60.1549 204.872 60.2891 205.223 60.3099C207.44 60.6939 209.7 60.7669 211.937 60.5268C214.775 60.1797 216.927 59.3684 217.597 55.4764C218.046 52.795 217.661 50.1049 217.804 47.9138ZM213.432 46.3301C213.432 47.4018 213.432 48.4692 213.432 49.5409C213.432 49.875 213.514 50.3262 213 50.3306C211.526 50.3306 210.04 50.6082 208.593 50.1093C208.232 49.9907 207.91 49.7738 207.665 49.4827C207.419 49.1916 207.259 48.8377 207.202 48.4605C206.911 46.9966 206.927 45.4878 207.249 44.0306C207.321 43.5723 207.552 43.1541 207.9 42.8494C208.248 42.5448 208.693 42.373 209.154 42.3644C210.364 42.269 211.587 42.3211 212.801 42.295C213.306 42.295 213.432 42.538 213.423 43.0066C213.406 44.113 213.432 45.2237 213.432 46.3301Z" fill="white"/>
<path d="M138.722 48.2176C138.722 46.8378 138.752 45.4537 138.722 44.074C138.64 40.9674 137.184 39.1277 134.185 38.4986C131.969 38.03 129.697 38.1384 127.467 38.3641C125.341 38.5767 124.845 39.4661 125.091 41.5661C125.195 42.4339 125.683 42.7246 126.417 42.5554C127.886 42.2213 129.368 42.3168 130.85 42.2951C131.571 42.273 132.292 42.2919 133.01 42.3515C133.301 42.3516 133.581 42.4614 133.794 42.6591C134.008 42.8568 134.14 43.128 134.164 43.4188C134.164 44.048 133.494 43.8787 133.105 44.0219C132.848 44.0898 132.587 44.142 132.323 44.1781C130.595 44.5773 128.802 44.6771 127.139 45.3409C125.592 45.9614 124.305 46.8552 124.006 48.6515C123.527 51.5151 124.871 53.6151 127.653 54.3137C130.859 55.1207 134.086 54.7953 137.292 54.2789C138.26 54.1271 138.735 53.3765 138.722 52.3568C138.713 50.9771 138.722 49.5973 138.722 48.2176ZM134.289 48.2696C134.16 51.142 134.95 50.6256 131.533 50.873C130.848 50.8308 130.167 50.7453 129.493 50.617C128.953 50.4955 128.37 50.2221 128.422 49.4845C128.465 48.825 128.962 48.6168 129.519 48.53C130.893 48.2696 132.272 48.031 133.637 47.723C134.185 47.5928 134.311 47.7663 134.289 48.2696Z" fill="white"/>
<path d="M178.73 66.8486C177.058 66.8095 175.934 67.7641 175.874 69.2696C175.868 69.6324 175.936 69.9926 176.074 70.328C176.212 70.6634 176.417 70.9669 176.676 71.22C176.935 71.4731 177.242 71.6704 177.58 71.7999C177.918 71.9293 178.278 71.9881 178.639 71.9727C179.329 71.9856 179.997 71.7244 180.497 71.246C180.997 70.7675 181.289 70.1104 181.309 69.4171C181.331 67.9116 180.294 66.8833 178.73 66.8486ZM178.591 70.6797C177.693 70.6797 177.632 69.9986 177.494 69.4519C177.559 68.6796 177.801 68.02 178.578 68.0157C179.356 68.0114 179.758 68.6839 179.728 69.4171C179.706 70.068 179.455 70.6797 178.591 70.6797Z" fill="white"/>
<path d="M198.275 70.7535C198.039 69.7171 197.96 68.6506 198.042 67.5905C198.042 67.443 197.761 67.239 197.567 67.1566C196.591 66.7018 195.478 66.6442 194.46 66.9961C193.886 67.2 194.331 68.2413 194.236 68.9008C194.225 69.0525 194.225 69.2047 194.236 69.3564C194.236 72.0725 194.339 72.1723 196.828 71.8035C197.09 71.7607 197.346 71.6894 197.593 71.5909C197.973 71.4347 198.362 71.0616 198.275 70.7535ZM196.184 67.9202C196.469 67.9419 196.53 68.1676 196.616 68.3541C196.595 68.6492 196.482 68.8184 196.21 68.8487C195.938 68.8791 195.778 68.7533 195.804 68.4626C195.83 68.1719 195.761 67.8855 196.184 67.9202ZM196.21 70.6971C195.826 70.7275 195.817 70.4758 195.813 70.1981C195.808 69.9204 195.895 69.6948 196.245 69.7252C196.309 69.7189 196.374 69.7272 196.434 69.7493C196.495 69.7714 196.55 69.8069 196.595 69.8531C196.64 69.8992 196.674 69.955 196.695 70.0162C196.716 70.0774 196.723 70.1425 196.716 70.2068C196.717 70.273 196.705 70.3388 196.68 70.4C196.654 70.4613 196.617 70.5166 196.569 70.5626C196.522 70.6086 196.466 70.6443 196.404 70.6675C196.342 70.6906 196.276 70.7007 196.21 70.6971Z" fill="white"/>
<path d="M128.145 71.1309C127.713 70.4801 127.191 69.9768 128.02 69.0873C128.729 68.3193 128.098 67.1565 127.001 66.9743C126.331 66.8615 125.635 66.9179 124.953 66.8528C124.356 66.7964 124.266 67.0914 124.279 67.5991C124.305 68.7489 124.313 69.8987 124.279 71.0485C124.257 71.6212 124.391 71.8685 125.022 71.8295C125.54 71.7991 125.925 71.7861 125.834 71.1005C125.834 70.7328 125.865 70.3656 125.925 70.0028C126.504 71.2741 126.962 72.2894 128.465 71.6689C128.318 71.452 128.245 71.2871 128.145 71.1309ZM126.115 69.0179C125.713 68.9702 125.83 68.6317 125.825 68.3931C125.821 68.1545 125.882 67.9332 126.201 67.9592C126.266 67.971 126.329 67.996 126.384 68.0327C126.439 68.0693 126.486 68.1169 126.523 68.1725C126.559 68.2282 126.584 68.2906 126.595 68.3561C126.607 68.4217 126.605 68.4889 126.59 68.5536C126.59 68.8747 126.435 69.0526 126.115 69.0179Z" fill="white"/>
<path d="M174.759 67.2521C174.308 66.9999 173.81 66.844 173.297 66.7939C172.783 66.7439 172.264 66.8009 171.774 66.9614C171.039 67.1697 171.609 68.1719 171.467 68.8011C171.445 68.9914 171.445 69.1835 171.467 69.3738C171.467 70.0246 171.467 70.6754 171.467 71.3219C171.467 71.7341 171.631 71.899 172.003 71.8166C172.374 71.7341 172.979 72.0812 172.901 71.5172C172.728 70.3153 173.61 70.4194 174.254 70.2155C174.548 70.1196 174.811 69.945 175.013 69.7104C175.216 69.4758 175.352 69.1901 175.405 68.884C175.458 68.578 175.428 68.2631 175.316 67.9733C175.205 67.6834 175.016 67.4296 174.772 67.2391L174.759 67.2521ZM173.251 69.2957C172.793 69.261 172.97 68.8618 172.923 68.6015C172.944 68.3194 172.858 67.9376 173.312 67.955C173.765 67.9723 173.852 68.2804 173.843 68.6579C173.835 69.0354 173.683 69.3304 173.251 69.2957Z" fill="white"/>
</g>
<defs>
<clipPath id="clip0">
<rect width="226" height="84" fill="white"/>
</clipPath>
</defs>
</svg>
