<svg width="179" height="179" viewBox="0 0 179 179" fill="none" xmlns="http://www.w3.org/2000/svg">
<path d="M179 0H0V179H179V0Z" fill="white"/>
<path d="M21.4801 14.32H14.3201V21.48H21.4801V14.32Z" fill="black"/>
<path d="M28.64 14.32H21.48V21.48H28.64V14.32Z" fill="black"/>
<path d="M35.7999 14.32H28.6399V21.48H35.7999V14.32Z" fill="black"/>
<path d="M42.96 14.32H35.8V21.48H42.96V14.32Z" fill="black"/>
<path d="M50.12 14.32H42.96V21.48H50.12V14.32Z" fill="black"/>
<path d="M57.2801 14.32H50.1201V21.48H57.2801V14.32Z" fill="black"/>
<path d="M64.44 14.32H57.28V21.48H64.44V14.32Z" fill="black"/>
<path d="M78.7601 14.32H71.6001V21.48H78.7601V14.32Z" fill="black"/>
<path d="M85.92 14.32H78.76V21.48H85.92V14.32Z" fill="black"/>
<path d="M107.4 14.32H100.24V21.48H107.4V14.32Z" fill="black"/>
<path d="M121.72 14.32H114.56V21.48H121.72V14.32Z" fill="black"/>
<path d="M128.88 14.32H121.72V21.48H128.88V14.32Z" fill="black"/>
<path d="M136.04 14.32H128.88V21.48H136.04V14.32Z" fill="black"/>
<path d="M143.2 14.32H136.04V21.48H143.2V14.32Z" fill="black"/>
<path d="M150.36 14.32H143.2V21.48H150.36V14.32Z" fill="black"/>
<path d="M157.52 14.32H150.36V21.48H157.52V14.32Z" fill="black"/>
<path d="M164.68 14.32H157.52V21.48H164.68V14.32Z" fill="black"/>
<path d="M21.4801 21.48H14.3201V28.64H21.4801V21.48Z" fill="black"/>
<path d="M64.44 21.48H57.28V28.64H64.44V21.48Z" fill="black"/>
<path d="M85.92 21.48H78.76V28.64H85.92V21.48Z" fill="black"/>
<path d="M107.4 21.48H100.24V28.64H107.4V21.48Z" fill="black"/>
<path d="M121.72 21.48H114.56V28.64H121.72V21.48Z" fill="black"/>
<path d="M164.68 21.48H157.52V28.64H164.68V21.48Z" fill="black"/>
<path d="M21.4801 28.64H14.3201V35.8H21.4801V28.64Z" fill="black"/>
<path d="M35.7999 28.64H28.6399V35.8H35.7999V28.64Z" fill="black"/>
<path d="M42.96 28.64H35.8V35.8H42.96V28.64Z" fill="black"/>
<path d="M50.12 28.64H42.96V35.8H50.12V28.64Z" fill="black"/>
<path d="M64.44 28.64H57.28V35.8H64.44V28.64Z" fill="black"/>
<path d="M78.7601 28.64H71.6001V35.8H78.7601V28.64Z" fill="black"/>
<path d="M93.0799 28.64H85.9199V35.8H93.0799V28.64Z" fill="black"/>
<path d="M107.4 28.64H100.24V35.8H107.4V28.64Z" fill="black"/>
<path d="M121.72 28.64H114.56V35.8H121.72V28.64Z" fill="black"/>
<path d="M136.04 28.64H128.88V35.8H136.04V28.64Z" fill="black"/>
<path d="M143.2 28.64H136.04V35.8H143.2V28.64Z" fill="black"/>
<path d="M150.36 28.64H143.2V35.8H150.36V28.64Z" fill="black"/>
<path d="M164.68 28.64H157.52V35.8H164.68V28.64Z" fill="black"/>
<path d="M21.4801 35.8H14.3201V42.96H21.4801V35.8Z" fill="black"/>
<path d="M35.7999 35.8H28.6399V42.96H35.7999V35.8Z" fill="black"/>
<path d="M42.96 35.8H35.8V42.96H42.96V35.8Z" fill="black"/>
<path d="M50.12 35.8H42.96V42.96H50.12V35.8Z" fill="black"/>
<path d="M64.44 35.8H57.28V42.96H64.44V35.8Z" fill="black"/>
<path d="M78.7601 35.8H71.6001V42.96H78.7601V35.8Z" fill="black"/>
<path d="M100.24 35.8H93.0801V42.96H100.24V35.8Z" fill="black"/>
<path d="M121.72 35.8H114.56V42.96H121.72V35.8Z" fill="black"/>
<path d="M136.04 35.8H128.88V42.96H136.04V35.8Z" fill="black"/>
<path d="M143.2 35.8H136.04V42.96H143.2V35.8Z" fill="black"/>
<path d="M150.36 35.8H143.2V42.96H150.36V35.8Z" fill="black"/>
<path d="M164.68 35.8H157.52V42.96H164.68V35.8Z" fill="black"/>
<path d="M21.4801 42.96H14.3201V50.12H21.4801V42.96Z" fill="black"/>
<path d="M35.7999 42.96H28.6399V50.12H35.7999V42.96Z" fill="black"/>
<path d="M42.96 42.96H35.8V50.12H42.96V42.96Z" fill="black"/>
<path d="M50.12 42.96H42.96V50.12H50.12V42.96Z" fill="black"/>
<path d="M64.44 42.96H57.28V50.12H64.44V42.96Z" fill="black"/>
<path d="M78.7601 42.96H71.6001V50.12H78.7601V42.96Z" fill="black"/>
<path d="M85.92 42.96H78.76V50.12H85.92V42.96Z" fill="black"/>
<path d="M93.0799 42.96H85.9199V50.12H93.0799V42.96Z" fill="black"/>
<path d="M121.72 42.96H114.56V50.12H121.72V42.96Z" fill="black"/>
<path d="M136.04 42.96H128.88V50.12H136.04V42.96Z" fill="black"/>
<path d="M143.2 42.96H136.04V50.12H143.2V42.96Z" fill="black"/>
<path d="M150.36 42.96H143.2V50.12H150.36V42.96Z" fill="black"/>
<path d="M164.68 42.96H157.52V50.12H164.68V42.96Z" fill="black"/>
<path d="M21.4801 50.12H14.3201V57.28H21.4801V50.12Z" fill="black"/>
<path d="M64.44 50.12H57.28V57.28H64.44V50.12Z" fill="black"/>
<path d="M121.72 50.12H114.56V57.28H121.72V50.12Z" fill="black"/>
<path d="M164.68 50.12H157.52V57.28H164.68V50.12Z" fill="black"/>
<path d="M21.4801 57.28H14.3201V64.44H21.4801V57.28Z" fill="black"/>
<path d="M28.64 57.28H21.48V64.44H28.64V57.28Z" fill="black"/>
<path d="M35.7999 57.28H28.6399V64.44H35.7999V57.28Z" fill="black"/>
<path d="M42.96 57.28H35.8V64.44H42.96V57.28Z" fill="black"/>
<path d="M50.12 57.28H42.96V64.44H50.12V57.28Z" fill="black"/>
<path d="M57.2801 57.28H50.1201V64.44H57.2801V57.28Z" fill="black"/>
<path d="M64.44 57.28H57.28V64.44H64.44V57.28Z" fill="black"/>
<path d="M78.7601 57.28H71.6001V64.44H78.7601V57.28Z" fill="black"/>
<path d="M93.0799 57.28H85.9199V64.44H93.0799V57.28Z" fill="black"/>
<path d="M107.4 57.28H100.24V64.44H107.4V57.28Z" fill="black"/>
<path d="M121.72 57.28H114.56V64.44H121.72V57.28Z" fill="black"/>
<path d="M128.88 57.28H121.72V64.44H128.88V57.28Z" fill="black"/>
<path d="M136.04 57.28H128.88V64.44H136.04V57.28Z" fill="black"/>
<path d="M143.2 57.28H136.04V64.44H143.2V57.28Z" fill="black"/>
<path d="M150.36 57.28H143.2V64.44H150.36V57.28Z" fill="black"/>
<path d="M157.52 57.28H150.36V64.44H157.52V57.28Z" fill="black"/>
<path d="M164.68 57.28H157.52V64.44H164.68V57.28Z" fill="black"/>
<path d="M85.92 64.44H78.76V71.6H85.92V64.44Z" fill="black"/>
<path d="M93.0799 64.44H85.9199V71.6H93.0799V64.44Z" fill="black"/>
<path d="M21.4801 71.6H14.3201V78.76H21.4801V71.6Z" fill="black"/>
<path d="M28.64 71.6H21.48V78.76H28.64V71.6Z" fill="black"/>
<path d="M35.7999 71.6H28.6399V78.76H35.7999V71.6Z" fill="black"/>
<path d="M42.96 71.6H35.8V78.76H42.96V71.6Z" fill="black"/>
<path d="M64.44 71.6H57.28V78.76H64.44V71.6Z" fill="black"/>
<path d="M78.7601 71.6H71.6001V78.76H78.7601V71.6Z" fill="black"/>
<path d="M93.0799 71.6H85.9199V78.76H93.0799V71.6Z" fill="black"/>
<path d="M114.56 71.6H107.4V78.76H114.56V71.6Z" fill="black"/>
<path d="M136.04 71.6H128.88V78.76H136.04V71.6Z" fill="black"/>
<path d="M143.2 71.6H136.04V78.76H143.2V71.6Z" fill="black"/>
<path d="M150.36 71.6H143.2V78.76H150.36V71.6Z" fill="black"/>
<path d="M164.68 71.6H157.52V78.76H164.68V71.6Z" fill="black"/>
<path d="M42.96 78.76H35.8V85.92H42.96V78.76Z" fill="black"/>
<path d="M57.2801 78.76H50.1201V85.92H57.2801V78.76Z" fill="black"/>
<path d="M78.7601 78.76H71.6001V85.92H78.7601V78.76Z" fill="black"/>
<path d="M85.92 78.76H78.76V85.92H85.92V78.76Z" fill="black"/>
<path d="M107.4 78.76H100.24V85.92H107.4V78.76Z" fill="black"/>
<path d="M114.56 78.76H107.4V85.92H114.56V78.76Z" fill="black"/>
<path d="M121.72 78.76H114.56V85.92H121.72V78.76Z" fill="black"/>
<path d="M128.88 78.76H121.72V85.92H128.88V78.76Z" fill="black"/>
<path d="M136.04 78.76H128.88V85.92H136.04V78.76Z" fill="black"/>
<path d="M143.2 78.76H136.04V85.92H143.2V78.76Z" fill="black"/>
<path d="M150.36 78.76H143.2V85.92H150.36V78.76Z" fill="black"/>
<path d="M50.12 85.92H42.96V93.08H50.12V85.92Z" fill="black"/>
<path d="M57.2801 85.92H50.1201V93.08H57.2801V85.92Z" fill="black"/>
<path d="M64.44 85.92H57.28V93.08H64.44V85.92Z" fill="black"/>
<path d="M71.5999 85.92H64.4399V93.08H71.5999V85.92Z" fill="black"/>
<path d="M78.7601 85.92H71.6001V93.08H78.7601V85.92Z" fill="black"/>
<path d="M107.4 85.92H100.24V93.08H107.4V85.92Z" fill="black"/>
<path d="M114.56 85.92H107.4V93.08H114.56V85.92Z" fill="black"/>
<path d="M121.72 85.92H114.56V93.08H121.72V85.92Z" fill="black"/>
<path d="M128.88 85.92H121.72V93.08H128.88V85.92Z" fill="black"/>
<path d="M143.2 85.92H136.04V93.08H143.2V85.92Z" fill="black"/>
<path d="M157.52 85.92H150.36V93.08H157.52V85.92Z" fill="black"/>
<path d="M164.68 85.92H157.52V93.08H164.68V85.92Z" fill="black"/>
<path d="M21.4801 93.08H14.3201V100.24H21.4801V93.08Z" fill="black"/>
<path d="M42.96 93.08H35.8V100.24H42.96V93.08Z" fill="black"/>
<path d="M57.2801 93.08H50.1201V100.24H57.2801V93.08Z" fill="black"/>
<path d="M71.5999 93.08H64.4399V100.24H71.5999V93.08Z" fill="black"/>
<path d="M78.7601 93.08H71.6001V100.24H78.7601V93.08Z" fill="black"/>
<path d="M107.4 93.08H100.24V100.24H107.4V93.08Z" fill="black"/>
<path d="M128.88 93.08H121.72V100.24H128.88V93.08Z" fill="black"/>
<path d="M136.04 93.08H128.88V100.24H136.04V93.08Z" fill="black"/>
<path d="M164.68 93.08H157.52V100.24H164.68V93.08Z" fill="black"/>
<path d="M21.4801 100.24H14.3201V107.4H21.4801V100.24Z" fill="black"/>
<path d="M35.7999 100.24H28.6399V107.4H35.7999V100.24Z" fill="black"/>
<path d="M42.96 100.24H35.8V107.4H42.96V100.24Z" fill="black"/>
<path d="M57.2801 100.24H50.1201V107.4H57.2801V100.24Z" fill="black"/>
<path d="M64.44 100.24H57.28V107.4H64.44V100.24Z" fill="black"/>
<path d="M78.7601 100.24H71.6001V107.4H78.7601V100.24Z" fill="black"/>
<path d="M85.92 100.24H78.76V107.4H85.92V100.24Z" fill="black"/>
<path d="M93.0799 100.24H85.9199V107.4H93.0799V100.24Z" fill="black"/>
<path d="M100.24 100.24H93.0801V107.4H100.24V100.24Z" fill="black"/>
<path d="M121.72 100.24H114.56V107.4H121.72V100.24Z" fill="black"/>
<path d="M164.68 100.24H157.52V107.4H164.68V100.24Z" fill="black"/>
<path d="M78.7601 107.4H71.6001V114.56H78.7601V107.4Z" fill="black"/>
<path d="M85.92 107.4H78.76V114.56H85.92V107.4Z" fill="black"/>
<path d="M93.0799 107.4H85.9199V114.56H93.0799V107.4Z" fill="black"/>
<path d="M121.72 107.4H114.56V114.56H121.72V107.4Z" fill="black"/>
<path d="M136.04 107.4H128.88V114.56H136.04V107.4Z" fill="black"/>
<path d="M143.2 107.4H136.04V114.56H143.2V107.4Z" fill="black"/>
<path d="M164.68 107.4H157.52V114.56H164.68V107.4Z" fill="black"/>
<path d="M21.4801 114.56H14.3201V121.72H21.4801V114.56Z" fill="black"/>
<path d="M28.64 114.56H21.48V121.72H28.64V114.56Z" fill="black"/>
<path d="M35.7999 114.56H28.6399V121.72H35.7999V114.56Z" fill="black"/>
<path d="M42.96 114.56H35.8V121.72H42.96V114.56Z" fill="black"/>
<path d="M50.12 114.56H42.96V121.72H50.12V114.56Z" fill="black"/>
<path d="M57.2801 114.56H50.1201V121.72H57.2801V114.56Z" fill="black"/>
<path d="M64.44 114.56H57.28V121.72H64.44V114.56Z" fill="black"/>
<path d="M85.92 114.56H78.76V121.72H85.92V114.56Z" fill="black"/>
<path d="M93.0799 114.56H85.9199V121.72H93.0799V114.56Z" fill="black"/>
<path d="M128.88 114.56H121.72V121.72H128.88V114.56Z" fill="black"/>
<path d="M136.04 114.56H128.88V121.72H136.04V114.56Z" fill="black"/>
<path d="M21.4801 121.72H14.3201V128.88H21.4801V121.72Z" fill="black"/>
<path d="M64.44 121.72H57.28V128.88H64.44V121.72Z" fill="black"/>
<path d="M100.24 121.72H93.0801V128.88H100.24V121.72Z" fill="black"/>
<path d="M107.4 121.72H100.24V128.88H107.4V121.72Z" fill="black"/>
<path d="M114.56 121.72H107.4V128.88H114.56V121.72Z" fill="black"/>
<path d="M128.88 121.72H121.72V128.88H128.88V121.72Z" fill="black"/>
<path d="M136.04 121.72H128.88V128.88H136.04V121.72Z" fill="black"/>
<path d="M143.2 121.72H136.04V128.88H143.2V121.72Z" fill="black"/>
<path d="M150.36 121.72H143.2V128.88H150.36V121.72Z" fill="black"/>
<path d="M164.68 121.72H157.52V128.88H164.68V121.72Z" fill="black"/>
<path d="M21.4801 128.88H14.3201V136.04H21.4801V128.88Z" fill="black"/>
<path d="M35.7999 128.88H28.6399V136.04H35.7999V128.88Z" fill="black"/>
<path d="M42.96 128.88H35.8V136.04H42.96V128.88Z" fill="black"/>
<path d="M50.12 128.88H42.96V136.04H50.12V128.88Z" fill="black"/>
<path d="M64.44 128.88H57.28V136.04H64.44V128.88Z" fill="black"/>
<path d="M93.0799 128.88H85.9199V136.04H93.0799V128.88Z" fill="black"/>
<path d="M100.24 128.88H93.0801V136.04H100.24V128.88Z" fill="black"/>
<path d="M114.56 128.88H107.4V136.04H114.56V128.88Z" fill="black"/>
<path d="M128.88 128.88H121.72V136.04H128.88V128.88Z" fill="black"/>
<path d="M136.04 128.88H128.88V136.04H136.04V128.88Z" fill="black"/>
<path d="M143.2 128.88H136.04V136.04H143.2V128.88Z" fill="black"/>
<path d="M21.4801 136.04H14.3201V143.2H21.4801V136.04Z" fill="black"/>
<path d="M35.7999 136.04H28.6399V143.2H35.7999V136.04Z" fill="black"/>
<path d="M42.96 136.04H35.8V143.2H42.96V136.04Z" fill="black"/>
<path d="M50.12 136.04H42.96V143.2H50.12V136.04Z" fill="black"/>
<path d="M64.44 136.04H57.28V143.2H64.44V136.04Z" fill="black"/>
<path d="M78.7601 136.04H71.6001V143.2H78.7601V136.04Z" fill="black"/>
<path d="M93.0799 136.04H85.9199V143.2H93.0799V136.04Z" fill="black"/>
<path d="M114.56 136.04H107.4V143.2H114.56V136.04Z" fill="black"/>
<path d="M157.52 136.04H150.36V143.2H157.52V136.04Z" fill="black"/>
<path d="M21.4801 143.2H14.3201V150.36H21.4801V143.2Z" fill="black"/>
<path d="M35.7999 143.2H28.6399V150.36H35.7999V143.2Z" fill="black"/>
<path d="M42.96 143.2H35.8V150.36H42.96V143.2Z" fill="black"/>
<path d="M50.12 143.2H42.96V150.36H50.12V143.2Z" fill="black"/>
<path d="M64.44 143.2H57.28V150.36H64.44V143.2Z" fill="black"/>
<path d="M78.7601 143.2H71.6001V150.36H78.7601V143.2Z" fill="black"/>
<path d="M85.92 143.2H78.76V150.36H85.92V143.2Z" fill="black"/>
<path d="M93.0799 143.2H85.9199V150.36H93.0799V143.2Z" fill="black"/>
<path d="M100.24 143.2H93.0801V150.36H100.24V143.2Z" fill="black"/>
<path d="M114.56 143.2H107.4V150.36H114.56V143.2Z" fill="black"/>
<path d="M121.72 143.2H114.56V150.36H121.72V143.2Z" fill="black"/>
<path d="M143.2 143.2H136.04V150.36H143.2V143.2Z" fill="black"/>
<path d="M21.4801 150.36H14.3201V157.52H21.4801V150.36Z" fill="black"/>
<path d="M64.44 150.36H57.28V157.52H64.44V150.36Z" fill="black"/>
<path d="M78.7601 150.36H71.6001V157.52H78.7601V150.36Z" fill="black"/>
<path d="M93.0799 150.36H85.9199V157.52H93.0799V150.36Z" fill="black"/>
<path d="M100.24 150.36H93.0801V157.52H100.24V150.36Z" fill="black"/>
<path d="M107.4 150.36H100.24V157.52H107.4V150.36Z" fill="black"/>
<path d="M121.72 150.36H114.56V157.52H121.72V150.36Z" fill="black"/>
<path d="M128.88 150.36H121.72V157.52H128.88V150.36Z" fill="black"/>
<path d="M164.68 150.36H157.52V157.52H164.68V150.36Z" fill="black"/>
<path d="M21.4801 157.52H14.3201V164.68H21.4801V157.52Z" fill="black"/>
<path d="M28.64 157.52H21.48V164.68H28.64V157.52Z" fill="black"/>
<path d="M35.7999 157.52H28.6399V164.68H35.7999V157.52Z" fill="black"/>
<path d="M42.96 157.52H35.8V164.68H42.96V157.52Z" fill="black"/>
<path d="M50.12 157.52H42.96V164.68H50.12V157.52Z" fill="black"/>
<path d="M57.2801 157.52H50.1201V164.68H57.2801V157.52Z" fill="black"/>
<path d="M64.44 157.52H57.28V164.68H64.44V157.52Z" fill="black"/>
<path d="M78.7601 157.52H71.6001V164.68H78.7601V157.52Z" fill="black"/>
<path d="M100.24 157.52H93.0801V164.68H100.24V157.52Z" fill="black"/>
<path d="M107.4 157.52H100.24V164.68H107.4V157.52Z" fill="black"/>
<path d="M114.56 157.52H107.4V164.68H114.56V157.52Z" fill="black"/>
<path d="M150.36 157.52H143.2V164.68H150.36V157.52Z" fill="black"/>
</svg>
