<svg width="23" height="23" viewBox="0 0 23 23" fill="none" xmlns="http://www.w3.org/2000/svg">
<g clip-path="url(#clip0)">
<path d="M14.5086 8.3531C21.9915 8.3531 21.4387 8.35152 21.5539 8.35598C21.4862 8.09753 21.3517 7.85305 21.1495 7.65083L19.0979 5.59928C18.6546 5.15592 17.974 5.02703 17.4041 5.27872C17.0981 5.41393 16.7335 5.34569 16.4968 5.10902C16.2602 4.87239 16.192 4.50777 16.3271 4.20178C16.5788 3.63206 16.45 2.95135 16.0065 2.50795L13.955 0.456392C13.3469 -0.15162 12.3576 -0.151665 11.7494 0.456392L9.18274 3.0231C9.90607 3.74701 13.7872 7.63108 14.5086 8.3531Z" fill="#448B9B"/>
<path d="M8.22602 3.97981L3.85272 8.3531H12.5952C12.5793 8.33722 12.2447 8.00228 8.22602 3.97981Z" fill="#448B9B"/>
<path d="M22.029 15.5913C22.6098 15.3664 23 14.794 23 14.1669V11.2656C23 10.4057 22.3004 9.70605 21.4404 9.70605H18.2647V22.9997H21.4404C22.3004 22.9997 23 22.3 23 21.4401V18.5388C23 17.9118 22.6098 17.3393 22.029 17.1144C21.717 16.9935 21.5074 16.6875 21.5074 16.3528C21.5074 16.0182 21.717 15.7121 22.029 15.5913Z" fill="#448B9B"/>
<path d="M0 11.2656V14.1669C0 14.794 0.390233 15.3664 0.971006 15.5913C1.28299 15.7121 1.49256 16.0182 1.49256 16.3528C1.49256 16.6875 1.28295 16.9935 0.970961 17.1144C0.390188 17.3393 0 17.9117 0 18.5388V21.4401C0 22.3 0.699651 22.9997 1.55958 22.9997H16.9118V9.70605H1.55958C0.699651 9.70605 0 10.4057 0 11.2656H0ZM4.73529 12.8526H14.8824V14.2055H4.73529V12.8526ZM4.73529 15.5585H14.8824V16.9114H4.73529V15.5585ZM4.73529 18.2644H14.8824V19.6173H4.73529V18.2644Z" fill="#448B9B"/>
</g>
<defs>
<clipPath id="clip0">
<rect width="23" height="23" fill="white"/>
</clipPath>
</defs>
</svg>
